<?xml version="1.0" encoding="UTF-8" standalone="no"?>
<!-- Created with Inkscape (http://www.inkscape.org/) -->

<svg
   width="83.648911mm"
   height="16.220257mm"
   viewBox="0 0 83.648911 16.220257"
   version="1.1"
   id="svg1"
   xmlns="http://www.w3.org/2000/svg"
   xmlns:svg="http://www.w3.org/2000/svg">
  <defs
     id="defs1">
    <clipPath
       clipPathUnits="userSpaceOnUse"
       id="clipPath34">
      <path
         d="M 0,623.622 H 566.93 V 0 H 0 Z"
         transform="matrix(1.3333333,0,0,-1.3333333,0,831.496)"
         id="path34" />
    </clipPath>
    <clipPath
       clipPathUnits="userSpaceOnUse"
       id="clipPath4">
      <path
         d="M -1.52588e-5,27.876 H 287.517 V -27.876 H -1.52588e-5 Z"
         transform="translate(-26.2065,23.425299)"
         id="path4" />
    </clipPath>
    <clipPath
       clipPathUnits="userSpaceOnUse"
       id="clipPath5">
      <path
         d="M -1.52588e-5,27.876 H 287.517 V -27.876 H -1.52588e-5 Z"
         transform="translate(-26.2065,16.247598)"
         id="path5" />
    </clipPath>
    <clipPath
       clipPathUnits="userSpaceOnUse"
       id="clipPath6">
      <path
         d="M -1.52588e-5,27.876 H 287.517 V -27.876 H -1.52588e-5 Z"
         transform="translate(-26.2065,8.9800005)"
         id="path6" />
    </clipPath>
    <clipPath
       clipPathUnits="userSpaceOnUse"
       id="clipPath7">
      <path
         d="M -1.52588e-5,27.876 H 287.517 V -27.876 H -1.52588e-5 Z"
         transform="translate(-53.4214,-18.543899)"
         id="path7" />
    </clipPath>
    <clipPath
       clipPathUnits="userSpaceOnUse"
       id="clipPath8">
      <path
         d="M -1.52588e-5,27.876 H 287.517 V -27.876 H -1.52588e-5 Z"
         id="path8" />
    </clipPath>
    <clipPath
       clipPathUnits="userSpaceOnUse"
       id="clipPath9">
      <path
         d="M -1.52588e-5,27.876 H 287.517 V -27.876 H -1.52588e-5 Z"
         transform="translate(-107.9336,13.586403)"
         id="path9" />
    </clipPath>
    <clipPath
       clipPathUnits="userSpaceOnUse"
       id="clipPath10">
      <path
         d="M -1.52588e-5,27.876 H 287.517 V -27.876 H -1.52588e-5 Z"
         transform="translate(-115.7554,-18.543899)"
         id="path10" />
    </clipPath>
    <clipPath
       clipPathUnits="userSpaceOnUse"
       id="clipPath11">
      <path
         d="M -1.52588e-5,27.876 H 287.517 V -27.876 H -1.52588e-5 Z"
         transform="translate(-138.4897,-18.543899)"
         id="path11" />
    </clipPath>
    <clipPath
       clipPathUnits="userSpaceOnUse"
       id="clipPath12">
      <path
         d="M -1.52588e-5,27.876 H 287.517 V -27.876 H -1.52588e-5 Z"
         transform="translate(-177.7622,-9.5088045)"
         id="path12" />
    </clipPath>
    <clipPath
       clipPathUnits="userSpaceOnUse"
       id="clipPath13">
      <path
         d="M -1.52588e-5,27.876 H 287.517 V -27.876 H -1.52588e-5 Z"
         transform="translate(-201.9507,13.586403)"
         id="path13" />
    </clipPath>
    <clipPath
       clipPathUnits="userSpaceOnUse"
       id="clipPath14">
      <path
         d="M -1.52588e-5,27.876 H 287.517 V -27.876 H -1.52588e-5 Z"
         transform="translate(-209.5142,-18.543899)"
         id="path14" />
    </clipPath>
    <clipPath
       clipPathUnits="userSpaceOnUse"
       id="clipPath15">
      <path
         d="M -1.52588e-5,27.876 H 287.517 V -27.876 H -1.52588e-5 Z"
         transform="translate(-230.9663,-18.543899)"
         id="path15" />
    </clipPath>
    <clipPath
       clipPathUnits="userSpaceOnUse"
       id="clipPath16">
      <path
         d="M -1.52588e-5,27.876 H 287.517 V -27.876 H -1.52588e-5 Z"
         transform="translate(-258.8374,-18.543899)"
         id="path16" />
    </clipPath>
    <clipPath
       clipPathUnits="userSpaceOnUse"
       id="clipPath17">
      <path
         d="M -1.52588e-5,27.876 H 287.517 V -27.876 H -1.52588e-5 Z"
         transform="translate(-26.2065,4.8021995)"
         id="path17" />
    </clipPath>
    <clipPath
       clipPathUnits="userSpaceOnUse"
       id="clipPath18">
      <path
         d="M -1.52588e-5,27.876 H 287.517 V -27.876 H -1.52588e-5 Z"
         transform="translate(-282.9927,-18.826202)"
         id="path18" />
    </clipPath>
  </defs>
  <g
     id="layer1"
     transform="translate(-49.110689,-85.032288)">
    <g
       id="g33"
       clip-path="url(#clipPath34)"
       transform="matrix(0.26458333,0,0,0.26458333,40.816657,-107.23922)">
      <path
         d="m 0,0 c -12.016,0 -21.756,9.741 -21.756,21.755 0,12.015 9.74,21.756 21.756,21.756 12.015,0 21.755,-9.741 21.755,-21.756 C 21.755,9.741 12.015,0 0,0"
         style="fill:#100f0e;fill-opacity:1;fill-rule:evenodd;stroke:none"
         transform="matrix(1.0996,0,0,1.0996,60.164219,731.58946)"
         clip-path="url(#clipPath4)"
         id="path19" />
      <path
         d="m 0,0 c -8.051,0 -14.578,6.526 -14.578,14.578 0,8.051 6.527,14.578 14.578,14.578 8.051,0 14.578,-6.527 14.578,-14.578 C 14.578,6.526 8.051,0 0,0"
         style="fill:#575a5c;fill-opacity:1;fill-rule:evenodd;stroke:none"
         transform="matrix(1.0996,0,0,1.0996,60.164219,739.48206)"
         clip-path="url(#clipPath5)"
         id="path20" />
      <path
         d="m 0,0 c -4.038,0 -7.31,3.273 -7.31,7.31 0,4.038 3.272,7.31 7.31,7.31 4.037,0 7.31,-3.272 7.31,-7.31 C 7.31,3.273 4.037,0 0,0"
         style="fill:#100f0e;fill-opacity:1;fill-rule:evenodd;stroke:none"
         transform="matrix(1.0996,0,0,1.0996,60.164219,747.47351)"
         clip-path="url(#clipPath6)"
         id="path21" />
      <path
         d="m 0,0 v -40.374 h 6.781 c 3.734,0 6.239,0.603 7.495,1.816 1.256,1.204 1.884,3.545 1.884,7.021 v 22.038 c 0,3.596 -0.62,6.074 -1.85,7.442 C 13.08,-0.688 10.894,0 7.753,0 Z m 6.351,-5.111 h 0.576 c 1.05,0 1.799,-0.302 2.229,-0.895 C 9.595,-6.6 9.81,-7.667 9.81,-9.199 V -31.76 c 0,-1.377 -0.206,-2.323 -0.628,-2.84 -0.414,-0.507 -1.171,-0.766 -2.255,-0.766 H 6.351 Z"
         style="fill:#f03e1e;fill-opacity:1;fill-rule:evenodd;stroke:none"
         transform="matrix(1.0996,0,0,1.0996,90.089723,777.73879)"
         clip-path="url(#clipPath7)"
         id="path22" />
      <path
         d="m 77.403,-21.83 h 6.351 v 40.374 h -6.351 z"
         style="fill:#f03e1e;fill-opacity:1;fill-rule:evenodd;stroke:none"
         transform="matrix(1.0996,0,0,1.0996,31.347552,757.34792)"
         clip-path="url(#clipPath8)"
         id="path23" />
      <path
         d="m 0,0 v 4.87 h -6.299 v -5.524 c 0,-1.222 -0.146,-2.048 -0.43,-2.47 -0.284,-0.421 -0.792,-0.628 -1.532,-0.628 -0.705,0 -1.195,0.207 -1.48,0.62 -0.284,0.413 -0.43,1.239 -0.43,2.478 v 2.728 c 0,1.557 1.394,3.924 4.182,7.081 1.188,1.343 2.099,2.41 2.737,3.201 1.161,1.463 2.022,2.857 2.572,4.191 0.559,1.325 0.835,2.659 0.835,4.001 v 3.003 c 0,2.9 -0.74,5.129 -2.229,6.695 -1.489,1.566 -3.596,2.349 -6.341,2.349 -2.987,0 -5.121,-0.705 -6.394,-2.108 -1.282,-1.411 -1.919,-3.786 -1.919,-7.134 v -4.388 h 6.299 v 5.266 c 0,1.325 0.146,2.203 0.439,2.625 0.292,0.421 0.817,0.628 1.575,0.628 0.756,0 1.282,-0.216 1.574,-0.646 0.293,-0.421 0.439,-1.299 0.439,-2.607 v -2.796 c 0,-0.491 -0.06,-0.999 -0.189,-1.523 -0.121,-0.534 -0.302,-1.076 -0.542,-1.627 -0.302,-0.688 -1.248,-1.936 -2.84,-3.734 -1.127,-1.274 -1.996,-2.298 -2.616,-3.072 C -14.103,9.56 -15.127,7.951 -15.661,6.66 -16.203,5.37 -16.47,3.984 -16.47,2.53 v -3.133 c 0,-2.564 0.74,-4.56 2.229,-5.98 1.489,-1.42 3.562,-2.126 6.23,-2.126 2.693,0 4.698,0.724 6.023,2.169 C -0.663,-5.103 0,-2.917 0,0"
         style="fill:#f03e1e;fill-opacity:1;fill-rule:evenodd;stroke:none"
         transform="matrix(1.0996,0,0,1.0996,150.03134,742.40831)"
         clip-path="url(#clipPath9)"
         id="path24" />
      <path
         d="m 0,0 v -40.374 h 8.828 c 2.616,0 4.492,0.525 5.628,1.575 1.136,1.05 1.704,2.779 1.704,5.197 v 6.454 c 0,2.685 -0.594,4.629 -1.79,5.834 -1.196,1.196 -3.124,1.798 -5.8,1.798 H 6.351 V 0 Z m 6.351,-35.469 v 10.997 H 6.91 c 1.058,0 1.807,-0.301 2.245,-0.895 0.44,-0.594 0.654,-1.661 0.654,-3.192 v -3.356 c 0,-1.36 -0.207,-2.289 -0.627,-2.797 C 8.76,-35.22 8.003,-35.469 6.91,-35.469 Z"
         style="fill:#f03e1e;fill-opacity:1;fill-rule:evenodd;stroke:none"
         transform="matrix(1.0996,0,0,1.0996,158.63219,777.73879)"
         clip-path="url(#clipPath10)"
         id="path25" />
      <path
         d="m 0,0 v -40.374 h 9.138 c 2.616,0 4.431,0.534 5.447,1.601 1.016,1.058 1.523,2.985 1.523,5.774 v 4.956 c 0,2.306 -0.318,4.027 -0.955,5.163 -0.645,1.135 -1.652,1.799 -3.029,1.987 L 17.141,0 H 10.739 L 6.625,-21.374 H 6.247 V 0 Z m 9.965,-31.915 c 0,-1.343 -0.225,-2.272 -0.663,-2.788 -0.448,-0.508 -1.257,-0.766 -2.427,-0.766 H 6.247 v 11.306 h 0.68 c 1.136,0 1.927,-0.292 2.375,-0.877 0.438,-0.594 0.663,-1.661 0.663,-3.201 z"
         style="fill:#f03e1e;fill-opacity:1;fill-rule:evenodd;stroke:none"
         transform="matrix(1.0996,0,0,1.0996,183.63083,777.73879)"
         clip-path="url(#clipPath11)"
         id="path26" />
      <path
         d="M 0,0 C 0,3.167 -0.662,5.542 -1.996,7.125 -3.321,8.708 -5.317,9.5 -7.977,9.5 -10.618,9.5 -12.598,8.708 -13.923,7.133 -15.239,5.559 -15.901,3.184 -15.901,0 v -22.364 c 0,-3.166 0.662,-5.541 1.978,-7.125 1.325,-1.574 3.305,-2.366 5.946,-2.366 2.66,0 4.656,0.792 5.981,2.383 1.334,1.584 1.996,3.959 1.996,7.108 z m -9.551,-23.973 v 25.41 c 0,1.213 0.112,1.997 0.335,2.358 0.224,0.361 0.646,0.542 1.239,0.542 0.603,0 1.025,-0.198 1.265,-0.594 0.241,-0.395 0.361,-1.161 0.361,-2.306 v -25.41 c 0,-1.144 -0.12,-1.91 -0.361,-2.297 -0.24,-0.388 -0.662,-0.577 -1.265,-0.577 -0.593,0 -1.015,0.172 -1.239,0.525 -0.223,0.353 -0.335,1.136 -0.335,2.349"
         style="fill:#f03e1e;fill-opacity:1;fill-rule:evenodd;stroke:none"
         transform="matrix(1.0996,0,0,1.0996,226.81487,767.8038)"
         clip-path="url(#clipPath12)"
         id="path27" />
      <path
         d="m 0,0 v 4.87 h -6.299 v -5.524 c 0,-1.222 -0.146,-2.048 -0.43,-2.47 -0.284,-0.421 -0.792,-0.628 -1.532,-0.628 -0.705,0 -1.196,0.207 -1.479,0.62 -0.284,0.413 -0.431,1.239 -0.431,2.478 v 2.728 c 0,1.557 1.394,3.924 4.182,7.081 1.188,1.343 2.099,2.41 2.737,3.201 1.161,1.463 2.022,2.857 2.572,4.191 0.56,1.325 0.835,2.659 0.835,4.001 v 3.003 c 0,2.9 -0.74,5.129 -2.229,6.695 -1.489,1.566 -3.596,2.349 -6.341,2.349 -2.986,0 -5.12,-0.705 -6.394,-2.108 -1.282,-1.411 -1.919,-3.786 -1.919,-7.134 v -4.388 h 6.299 v 5.266 c 0,1.325 0.147,2.203 0.439,2.625 0.293,0.421 0.817,0.628 1.575,0.628 0.757,0 1.281,-0.216 1.574,-0.646 0.293,-0.421 0.439,-1.299 0.439,-2.607 v -2.796 c 0,-0.491 -0.06,-0.999 -0.19,-1.523 -0.12,-0.534 -0.301,-1.076 -0.542,-1.627 -0.301,-0.688 -1.247,-1.936 -2.839,-3.734 -1.128,-1.274 -1.996,-2.298 -2.616,-3.072 C -14.104,9.56 -15.127,7.951 -15.661,6.66 -16.203,5.37 -16.47,3.984 -16.47,2.53 v -3.133 c 0,-2.564 0.74,-4.56 2.229,-5.98 1.489,-1.42 3.562,-2.126 6.23,-2.126 2.694,0 4.698,0.724 6.024,2.169 C -0.662,-5.103 0,-2.917 0,0"
         style="fill:#dcb811;fill-opacity:1;fill-rule:evenodd;stroke:none"
         transform="matrix(1.0996,0,0,1.0996,253.41254,742.40831)"
         clip-path="url(#clipPath13)"
         id="path28" />
      <path
         d="m 0,0 v -40.374 h 14.25 v 5.111 H 6.351 v 10.223 h 7.899 v 5.163 H 6.351 V -5.266 H 14.25 V 0 Z"
         style="fill:#dcb811;fill-opacity:1;fill-rule:evenodd;stroke:none"
         transform="matrix(1.0996,0,0,1.0996,261.72937,777.73879)"
         clip-path="url(#clipPath14)"
         id="path29" />
      <path
         d="m 0,0 v -40.374 h 9.139 c 2.616,0 4.431,0.534 5.447,1.601 1.015,1.058 1.522,2.985 1.522,5.774 v 4.956 c 0,2.306 -0.318,4.027 -0.955,5.163 -0.645,1.135 -1.652,1.799 -3.028,1.987 L 17.142,0 H 10.739 L 6.626,-21.374 H 6.247 V 0 Z m 9.965,-31.915 c 0,-1.343 -0.224,-2.272 -0.663,-2.788 -0.447,-0.508 -1.256,-0.766 -2.426,-0.766 H 6.247 v 11.306 h 0.68 c 1.137,0 1.928,-0.292 2.375,-0.877 0.439,-0.594 0.663,-1.661 0.663,-3.201 z"
         style="fill:#dcb811;fill-opacity:1;fill-rule:evenodd;stroke:none"
         transform="matrix(1.0996,0,0,1.0996,285.3181,777.73879)"
         clip-path="url(#clipPath15)"
         id="path30" />
      <path
         d="m 0,0 -6.049,-40.374 h 6.66 l 2.651,31.502 2.615,-31.502 h 6.661 L 6.515,0 Z"
         style="fill:#dcb811;fill-opacity:1;fill-rule:evenodd;stroke:none"
         transform="matrix(1.0996,0,0,1.0996,315.96516,777.73879)"
         clip-path="url(#clipPath16)"
         id="path31" />
      <path
         d="m 0,0 c -1.73,0 -3.133,1.403 -3.133,3.132 0,1.73 1.403,3.133 3.133,3.133 1.73,0 3.132,-1.403 3.132,-3.133 0,-1.467 -1.009,-2.698 -2.371,-3.039 z M 256.786,28.153 0,28.276 C -13.885,28.283 -25.144,17.019 -25.144,3.132 -25.144,-10.753 -13.887,-22.011 0,-22.011 V 0"
         style="fill:none;stroke:#f03e1e;stroke-width:2.126;stroke-linecap:butt;stroke-linejoin:miter;stroke-miterlimit:22.926;stroke-dasharray:none;stroke-opacity:1"
         transform="matrix(1.0996,0,0,1.0996,60.164219,752.06742)"
         clip-path="url(#clipPath17)"
         id="path32" />
      <path
         d="M 0,0 C -2.5,0 -4.525,2.026 -4.525,4.525 -4.525,7.024 -2.5,9.05 0,9.05 2.499,9.05 4.524,7.024 4.524,4.525 4.524,2.026 2.499,0 0,0"
         style="fill:#f03e1e;fill-opacity:1;fill-rule:evenodd;stroke:none"
         transform="matrix(1.0996,0,0,1.0996,342.52632,778.04921)"
         clip-path="url(#clipPath18)"
         id="path33" />
    </g>
  </g>
</svg>
